HIERARCHY
ROOT hip
{
	OFFSET 0.000000 0.000000 0.000000 
	CHANNELS 6 Xposition Yposition Zposition Xrotation Zrotation Yrotation
	JOINT abdomen
	{
		OFFSET 0.000000 3.402643 0.000000 
		CHANNELS 3 Xrotation Zrotation Yrotation
		JOINT chest
		{
			OFFSET 0.000000 8.438565 -0.680529 
			CHANNELS 3 Xrotation Zrotation Yrotation
			JOINT neck
			{
				OFFSET 0.000000 10.207942 -0.272212 
				CHANNELS 3 Xrotation Zrotation Yrotation
				JOINT head
				{
					OFFSET 0.000000 3.130431 0.000000 
					CHANNELS 3 Xrotation Zrotation Yrotation
					End Site
					{
						OFFSET 0.000000 3.130435 0.000000 
					}
				}
			}
			JOINT lCollar
			{
				OFFSET 3.470700 6.669187 -0.816635 
				CHANNELS 3 Yrotation Zrotation Xrotation
				JOINT lShldr
				{
					OFFSET 3.198488 0.000000 0.000000 
					CHANNELS 3 Zrotation Yrotation Xrotation
					JOINT lForeArm
					{
						OFFSET 10.139888 0.000000 0.000000 
						CHANNELS 3 Yrotation Zrotation Xrotation
						JOINT lHand
						{
							OFFSET 8.370511 0.000000 0.000000 
							CHANNELS 3 Zrotation Yrotation Xrotation
							End Site
							{
								OFFSET 4.083176 0.000000 0.000000 
							}
						}
					}
				}
			}
			JOINT rCollar
			{
				OFFSET -3.470700 6.669187 -0.816635 
				CHANNELS 3 Yrotation Zrotation Xrotation
				JOINT rShldr
				{
					OFFSET -3.198488 0.000000 0.000000 
					CHANNELS 3 Zrotation Yrotation Xrotation
					JOINT rForeArm
					{
						OFFSET -10.139888 0.000000 0.000000 
						CHANNELS 3 Yrotation Zrotation Xrotation
						JOINT rHand
						{
							OFFSET -8.370511 0.000000 0.000000 
							CHANNELS 3 Zrotation Yrotation Xrotation
							End Site
							{
								OFFSET -4.083176 0.000000 0.000000 
							}
						}
					}
				}
			}
		}
	}
	JOINT lThigh
	{
		OFFSET 5.308129 -1.633274 1.361059 
		CHANNELS 3 Xrotation Zrotation Yrotation
		JOINT lShin
		{
			OFFSET -2.041588 -20.007561 0.000000 
			CHANNELS 3 Xrotation Zrotation Yrotation
			JOINT lFoot
			{
				OFFSET 0.000000 -19.190928 -1.224953 
				CHANNELS 3 Xrotation Yrotation Zrotation
				End Site
				{
					OFFSET 0.000000 -2.449906 4.627600 
				}
			}
		}
	}
	JOINT rThigh
	{
		OFFSET -5.308129 -1.633274 1.361059 
		CHANNELS 3 Xrotation Zrotation Yrotation
		JOINT rShin
		{
			OFFSET 2.041588 -20.007561 0.000000 
			CHANNELS 3 Xrotation Zrotation Yrotation
			JOINT rFoot
			{
				OFFSET 0.000000 -19.190928 -1.224953 
				CHANNELS 3 Xrotation Yrotation Zrotation
				End Site
				{
					OFFSET 0.000000 -2.449906 4.627600 
				}
			}
		}
	}
}
MOTION
Frames: 13
Frame Time: 0.016667
-0.241663 54.010883 -4.339468 -7.012416 -0.378922 -5.781382 28.571779 1.381276 0.982105 -1.898913 1.503897 0.302920 -15.390131 2.703283 -0.606636 5.738815 6.996104 -67.194908 -0.223348 0.514355 0.028833 -64.935814 22.889565 -22.310135 -11.934995 -5.000000 45.000000 0.000000 0.000000 27.880859 12.737918 3.121214 -0.169075 63.628342 -11.304117 -13.721786 4.181489 5.000000 45.000000 0.000000 0.000000 17.597656 16.225555 11.160211 8.069156 -1.493060 -3.760716 0.017004 -3.992472 11.713640 -7.139163 10.921639 -9.732309 -6.176190 2.040431 3.376762 0.203535 -0.166778 -13.535597 8.150328 
-0.240077 54.009418 -4.338138 -7.000548 -0.398340 -5.800981 28.562937 1.410983 1.014106 -1.909223 1.494133 0.312692 -15.380057 2.674317 -0.602257 5.759975 7.008520 -67.208977 -0.242870 0.494850 0.027829 -64.929695 22.901546 -22.323696 -11.920671 -5.000000 45.000000 0.000000 0.000000 27.900393 12.728182 3.130968 -0.169581 63.609715 -11.321840 -13.722303 4.136767 5.000000 45.000000 0.000000 0.000000 17.099607 16.212317 11.178464 8.073264 -1.477341 -3.777393 0.016795 -4.001461 11.744966 -7.071755 10.877344 -9.735904 -6.165392 2.087065 3.382525 0.216570 -0.196567 -13.473701 8.182136 
-0.237774 54.007080 -4.338633 -6.989934 -0.408070 -5.781451 28.553259 1.420764 1.017803 -1.909001 1.484367 0.322453 -15.389620 2.655006 -0.599339 5.764604 7.030163 -67.204445 -0.252645 0.514355 0.028833 -64.945625 22.885855 -22.313931 -11.913698 -5.000000 45.000000 0.000000 0.000000 28.388672 12.708074 3.113614 -0.159059 63.618309 -11.315177 -13.715538 4.098725 5.000000 45.000000 0.000000 0.000000 16.767578 16.208294 11.200698 8.076932 -1.464553 -3.772209 0.005521 -4.066252 11.716516 -6.982033 10.872872 -9.712141 -6.172019 2.087642 3.382169 0.216575 -0.194468 -13.464632 8.187599 
-0.234987 54.004158 -4.340337 -6.969704 -0.417815 -5.742390 28.533592 1.459310 1.002421 -1.898730 1.484365 0.332212 -15.399184 2.635696 -0.596420 5.769699 7.050768 -67.190628 -0.242893 0.543613 0.030341 -64.976883 22.841528 -22.285885 -11.929140 -5.000000 45.000000 0.000000 0.000000 29.199219 12.688461 3.084357 -0.157544 63.654850 -11.297232 -13.705828 4.068483 5.000000 45.000000 0.000000 0.000000 16.582031 16.188601 11.210305 8.038504 -1.485096 -3.775001 -0.002124 -4.121664 11.854863 -6.780052 10.875568 -9.695028 -6.188698 2.079316 3.375933 0.196407 -0.174954 -13.501984 8.175060 
-0.232737 54.001530 -4.341411 -6.958208 -0.437270 -5.713096 28.523746 1.472333 0.997552 -1.888711 1.484364 0.332209 -15.408748 2.616386 -0.593501 5.774802 7.071394 -67.175613 -0.223377 0.572871 0.031848 -64.997124 22.809782 -22.250027 -11.915230 -5.000000 45.000000 0.000000 0.000000 29.814451 12.659619 3.062711 -0.166049 63.672043 -11.283929 -13.692283 4.051601 5.000000 45.000000 0.000000 0.000000 16.464844 16.160986 11.230521 7.991805 -1.492154 -3.761724 -0.002499 -4.177439 11.923496 -6.651824 10.873748 -9.654136 -6.212006 2.066954 3.360651 0.185967 -0.142006 -13.499825 8.167453 
-0.232611 54.000065 -4.339954 -6.965136 -0.466430 -5.703332 28.514832 1.492074 1.026430 -1.869433 1.484365 0.322446 -15.438147 2.626041 -0.594960 5.755270 7.071393 -67.175613 -0.203850 0.582623 0.032350 -64.992249 22.775583 -22.223242 -11.837749 -5.000000 45.000000 0.000000 0.000000 29.667969 12.640117 3.072467 -0.166554 63.663078 -11.268746 -13.699024 4.081358 5.000000 45.000000 0.000000 0.000000 16.669922 16.181007 11.269950 7.990862 -1.484578 -3.786012 -0.011549 -4.150046 11.891154 -6.689568 10.901892 -9.624459 -6.227621 2.008304 3.362123 0.152741 -0.143511 -13.437951 8.170494 
-0.232486 53.998604 -4.338499 -6.971020 -0.505299 -5.703419 28.516106 1.529125 1.062856 -1.849938 1.474599 0.322446 -15.467443 2.626041 -0.594960 5.735739 7.071393 -67.175613 -0.184324 0.592376 0.032853 -64.995354 22.733564 -22.187775 -11.750283 -5.000000 45.000000 0.000000 0.000000 29.511717 12.610849 3.082224 -0.167060 63.652679 -11.257970 -13.692761 4.109340 5.000000 45.000000 0.000000 0.000000 16.875000 16.189447 11.308414 7.989660 -1.493876 -3.782361 -0.011615 -4.142967 11.866811 -6.709612 10.944531 -9.607889 -6.264755 1.970934 3.384160 0.159866 -0.161537 -13.320693 8.192441 
-0.231395 53.999481 -4.339471 -6.974012 -0.476155 -5.693568 28.525230 1.505312 1.042595 -1.859121 1.494128 0.341972 -15.467143 2.597075 -0.590582 5.732490 7.057292 -67.181320 -0.184314 0.572871 0.031848 -64.967766 22.748758 -22.185135 -11.811146 -5.000000 45.000000 0.000000 0.000000 29.169922 12.610309 3.074604 -0.157039 63.661644 -11.273153 -13.684107 4.087756 5.000000 45.000000 0.000000 0.000000 16.718750 16.169188 11.268918 7.960695 -1.493149 -3.761004 0.007249 -4.148026 11.875361 -6.674644 10.939293 -9.613500 -6.266391 1.950158 3.362377 0.148800 -0.112158 -13.387592 8.202596 
-0.230064 54.000946 -4.341054 -6.967230 -0.447010 -5.683801 28.524445 1.484931 1.013450 -1.878056 1.513657 0.351732 -15.466746 2.558454 -0.584744 5.736465 7.032893 -67.195137 -0.194065 0.543613 0.030341 -64.940178 22.763956 -22.182482 -11.902078 -5.000000 45.000000 0.000000 0.000000 28.789063 12.610254 3.055099 -0.156029 63.659855 -11.286308 -13.666763 4.056394 5.000000 45.000000 0.000000 0.000000 16.474609 16.144125 11.236285 7.953827 -1.464050 -3.751456 0.004880 -4.182962 11.828610 -6.658826 10.946506 -9.648806 -6.281176 1.963860 3.376976 0.159812 -0.102605 -13.418704 8.202167 
-0.228680 54.001827 -4.342055 -6.979075 -0.427590 -5.664269 28.533747 1.470262 0.996872 -1.887779 1.523423 0.361498 -15.456882 2.548799 -0.583284 5.742067 7.020920 -67.223053 -0.203732 0.524143 0.019571 -64.922394 22.775469 -22.187387 -11.961809 -5.000000 45.000000 0.000000 0.000000 28.789063 12.610227 3.045346 -0.155524 63.661652 -11.303735 -13.679805 4.048265 5.000000 45.000000 0.000000 0.000000 16.367189 16.139112 11.209318 7.927120 -1.455708 -3.764843 0.015013 -4.204403 11.846231 -6.639351 10.953238 -9.656031 -6.302800 1.941537 3.344753 0.157932 -0.083263 -13.471925 8.204545 
-0.227228 54.001827 -4.342181 -6.988987 -0.427604 -5.644739 28.534044 1.463480 1.015095 -1.888854 1.513661 0.341980 -15.447314 2.568110 -0.586203 5.739061 7.022362 -67.274361 -0.223266 0.533898 0.020073 -64.940781 22.776934 -22.187176 -11.964249 -5.000000 45.000000 0.000000 0.000000 29.345703 12.610281 3.064852 -0.156534 63.658447 -11.332088 -13.731910 4.085592 5.000000 45.000000 0.000000 0.000000 16.464844 16.150572 11.210238 7.917422 -1.463823 -3.750902 0.024391 -4.151579 11.829140 -6.682114 10.983921 -9.666491 -6.364408 1.941520 3.344722 0.167693 -0.108913 -13.379559 8.236863 
-0.225768 54.001827 -4.342308 -6.998825 -0.427611 -5.634973 28.534508 1.465840 1.036748 -1.889660 1.503899 0.322458 -15.437745 2.587420 -0.589122 5.756038 7.022715 -67.315147 -0.233127 0.543613 0.030341 -64.959167 22.778399 -22.190748 -11.966388 -5.000000 45.000000 0.000000 0.000000 29.912109 12.610335 3.084357 -0.157544 63.645969 -11.354033 -13.786416 4.116100 5.000000 45.000000 0.000000 0.000000 16.562498 16.161938 11.211127 7.897758 -1.462825 -3.751612 0.014643 -4.092305 11.821397 -6.743402 11.005266 -9.658147 -6.412759 1.940862 3.333839 0.157940 -0.141407 -13.347703 8.236243 
-0.227484 54.004753 -4.345092 -6.995833 -0.359588 -5.625134 28.533169 1.383980 1.003072 -1.899967 1.494135 0.293167 -15.438147 2.626041 -0.594960 5.808553 7.035735 -67.298935 -0.223367 0.553366 0.030843 -64.951797 22.799196 -22.204128 -11.982157 -5.000000 45.000000 0.000000 0.000000 29.619139 12.620266 3.142872 -0.160575 63.605099 -11.354642 -13.761365 4.115043 5.000000 45.000000 0.000000 0.000000 16.416014 16.100670 11.161073 7.895522 -1.417334 -3.727255 0.011102 -4.040411 11.698291 -6.960629 11.004618 -9.716006 -6.551535 1.932909 3.327086 0.176830 -0.123436 -13.215652 8.246866 
